<svg aria-hidden="true" style="position: absolute; width: 0; height: 0; overflow: hidden;" version="1.1" xmlns="http://www.w3.org/2000/svg" xmlns:xlink="http://www.w3.org/1999/xlink">
    <defs>
        <symbol id="icon-search" viewBox="0 0 32 32">
            <path d="M19.427 20.427c-1.39 0.99-3.090 1.573-4.927 1.573-4.694 0-8.5-3.806-8.5-8.5s3.806-8.5 8.5-8.5c4.694 0 8.5 3.806 8.5 8.5 0 2.347-0.951 4.472-2.49 6.010l5.997 5.997c0.275 0.275 0.268 0.716-0.008 0.992-0.278 0.278-0.72 0.28-0.992 0.008l-6.081-6.081zM14.5 21c4.142 0 7.5-3.358 7.5-7.5s-3.358-7.5-7.5-7.5c-4.142 0-7.5 3.358-7.5 7.5s3.358 7.5 7.5 7.5v0z"></path>
        </symbol>
        <symbol id="icon-arrow_drop_down" viewBox="0 0 24 24">
            <path d="M6.984 9.984h10.031l-5.016 5.016z"></path>
        </symbol>
        <symbol id="icon-login" viewBox="0 0 20 20">
            <path d="M14 10l-6-5v3h-7v4h7v3l6-5zM17 17h-8v2h8c1.1 0 2-0.9 2-2v-14c0-1.1-0.9-2-2-2h-8v2h8v14z"></path>
        </symbol>
        <symbol id="icon-user" viewBox="0 0 32 32">
            <path d="M31.11 28.336c-0.201-0.133-3.848-2.525-9.273-3.699 1.99-2.521 3.268-5.912 3.811-8.169 0.754-3.128 0.461-9.248-2.543-13.062-1.756-2.229-4.213-3.406-7.105-3.406s-5.349 1.178-7.104 3.406c-3.004 3.813-3.296 9.933-2.543 13.061 0.543 2.257 1.82 5.648 3.811 8.169-5.425 1.174-9.072 3.566-9.272 3.699-0.733 0.488-1.061 1.4-0.805 2.242 0.254 0.845 1.033 1.423 1.913 1.423h28c0.881 0 1.658-0.578 1.914-1.422 0.257-0.842-0.071-1.754-0.804-2.242zM20.267 23.398l-0.326 0.414c-2.385 2.74-5.495 2.74-7.879 0l-0.327-0.414c-2.785-3.529-4.167-8.197-3.572-12.65 0.545-4.279 2.997-8.748 7.837-8.748s7.293 4.47 7.838 8.749c0.593 4.455-0.784 9.118-3.571 12.649zM2 30c0.138-0.092 3.526-2.314 8.586-3.408l2.484-0.537c0.887 0.582 1.86 0.945 2.93 0.945 1.071 0 2.043-0.363 2.93-0.945l2.484 0.537c5.020 1.086 8.396 3.283 8.586 3.408h-28z"></path>
        </symbol>
        <symbol id="icon-forum" viewBox="0 0 24 24">
            <path d="M17.016 12q0 0.422-0.305 0.703t-0.727 0.281h-9.984l-3.984 4.031v-14.016q0-0.422 0.281-0.703t0.703-0.281h12.984q0.422 0 0.727 0.281t0.305 0.703v9zM21 6q0.422 0 0.703 0.281t0.281 0.703v15l-3.984-3.984h-11.016q-0.422 0-0.703-0.281t-0.281-0.703v-2.016h12.984v-9h2.016z"></path>
        </symbol>
        <symbol id="icon-briefcase" viewBox="0 0 32 32">
            <path d="M30 8h-8v-2c0-1.1-0.9-2-2-2h-8c-1.1 0-2 0.9-2 2v2h-8c-1.1 0-2 0.9-2 2v18c0 1.1 0.9 2 2 2h28c1.1 0 2-0.9 2-2v-18c0-1.1-0.9-2-2-2zM12 6.004c0.001-0.001 0.002-0.003 0.004-0.004h7.993c0.001 0.001 0.003 0.002 0.004 0.004v1.996h-8v-1.996zM30 16h-4v3c0 0.55-0.45 1-1 1h-2c-0.55 0-1-0.45-1-1v-3h-12v3c0 0.55-0.45 1-1 1h-2c-0.55 0-1-0.45-1-1v-3h-4v-2h28v2z"></path>
        </symbol>
        <symbol id="icon-embed2" viewBox="0 0 40 32">
            <path d="M26 23l3 3 10-10-10-10-3 3 7 7z"></path>
            <path d="M14 9l-3-3-10 10 10 10 3-3-7-7z"></path>
            <path d="M21.916 4.704l2.171 0.592-6 22.001-2.171-0.592 6-22.001z"></path>
        </symbol>
        <symbol id="icon-probot" viewBox="0 0 32 32">
            <path d="M16 0.053c-1.283 0.001-2.323 1.041-2.323 2.324 0 1.027 0.667 1.899 1.591 2.206l0.016 0.005-0.841 3.439h-11.168c-1.809 0-3.275 1.466-3.275 3.275v0 17.372c0 1.809 1.466 3.275 3.275 3.275v0h25.451c1.808 0 3.275-1.467 3.275-3.275v-17.372c0-1.808-1.467-3.275-3.275-3.275h-11.204l-0.821-3.433c0.949-0.307 1.624-1.183 1.624-2.216 0-1.283-1.040-2.324-2.324-2.324v0zM5.244 10.508h21.515c1.468 0 2.659 1.191 2.659 2.659v13.489c0 1.468-1.19 2.659-2.659 2.659v0h-21.515c-1.468 0-2.659-1.19-2.659-2.659v0-13.489c0-1.468 1.191-2.659 2.659-2.659zM9.583 13.591c-3.369 0-6.1 2.731-6.1 6.1s2.731 6.1 6.1 6.1v0c3.369 0 6.1-2.731 6.1-6.1s-2.731-6.1-6.1-6.1v0zM22.573 13.591c-3.369 0-6.1 2.731-6.1 6.1s2.731 6.1 6.1 6.1v0c3.369 0 6.1-2.731 6.1-6.1s-2.731-6.1-6.1-6.1v0zM9.583 15.017c0.023-0 0.051-0.001 0.079-0.001 2.582 0 4.675 2.093 4.675 4.675s-2.093 4.675-4.675 4.675c-0.028 0-0.055-0-0.083-0.001l0.004 0c-2.548-0.044-4.596-2.12-4.596-4.674s2.048-4.63 4.592-4.674l0.004-0zM22.573 15.017c0.023-0 0.051-0.001 0.079-0.001 2.582 0 4.675 2.093 4.675 4.675s-2.093 4.675-4.675 4.675c-0.028 0-0.055-0-0.083-0.001l0.004 0c-2.548-0.044-4.596-2.12-4.596-4.674s2.048-4.63 4.592-4.674l0.004-0zM9.583 17.235c-1.357 0-2.457 1.1-2.457 2.457s1.1 2.457 2.457 2.457v0c1.357 0 2.457-1.1 2.457-2.457s-1.1-2.457-2.457-2.457v0zM22.573 17.235c-1.357 0-2.457 1.1-2.457 2.457s1.1 2.457 2.457 2.457v0c1.357 0 2.457-1.1 2.457-2.457s-1.1-2.457-2.457-2.457v0zM13.337 25.901v2.879h0.941v-2.879zM14.773 25.901v2.879h0.94v-2.879zM16.208 25.901v2.879h0.941v-2.879zM17.644 25.901v2.879h0.941v-2.879zM19.080 25.941v2.8c0.638-0.156 1.104-0.723 1.105-1.399v-0.001c0-0.68-0.472-1.249-1.105-1.4zM12.843 25.979c-0.571 0.199-0.974 0.733-0.975 1.361v0.001c0 0.632 0.408 1.168 0.975 1.361z"></path>
        </symbol>
    </defs>
</svg>
